HIERARCHY
ROOT Hip
{
   OFFSET 0.00000 0.00000 0.00000
   CHANNELS 6 Xposition Yposition Zposition Zrotation Yrotation Xrotation
   JOINT Head
   {
      OFFSET 0.000000 26.131601 0.000000
      CHANNELS 3 Zrotation Yrotation Xrotation
      End Site
      {
         OFFSET 0.000000 15.569401 0.000000
      }
      JOINT LeftShoulder
      {
         OFFSET 8.640060 0.000000 0.000000
         CHANNELS 3 Zrotation Yrotation Xrotation
         JOINT LeftHand
         {
            OFFSET 0.000000 -12.625800 0.000000
            CHANNELS 3 Zrotation Yrotation Xrotation
            End Site
            {
               OFFSET 0.000000 -13.828100 0.000000
            }
         }
      }
      JOINT RightShoulder
      {
         OFFSET -9.208320 0.000000 0.000000
         CHANNELS 3 Zrotation Yrotation Xrotation
         JOINT RghtHand
         {
            OFFSET 0.000000 -15.128301 0.000000
            CHANNELS 3 Zrotation Yrotation Xrotation
            End Site
            {
               OFFSET 0.000000 -10.362880 0.000000
            }
         }
      }
   }
   JOINT LeftHip
   {
      OFFSET 9.142430 0.000000 0.000000
      CHANNELS 3 Zrotation Yrotation Xrotation
      JOINT LeftKnee
      {
         OFFSET 0.000000 -25.770800 0.000000
         CHANNELS 3 Zrotation Yrotation Xrotation
         JOINT LeftFoot
         {
            OFFSET 0.000000 -19.649300 0.000000
            CHANNELS 3 Zrotation Yrotation Xrotation
            End Site
            {
               OFFSET 0.000000 0.000000 12.805100
            }
         }
      }
   }
   JOINT RightHip
   {
      OFFSET -9.142430 0.000000 0.000000
      CHANNELS 3 Zrotation Yrotation Xrotation
      JOINT RightKnee
      {
         OFFSET 0.000000 -23.323302 0.000000
         CHANNELS 3 Zrotation Yrotation Xrotation
         JOINT RightFoot
         {
            OFFSET 0.000000 -20.002401 0.000000
            CHANNELS 3 Zrotation Yrotation Xrotation
            End Site
            {
               OFFSET 0.000000 0.000000 12.862299
            }
         }
      }
   }
}
MOTION
Frames: 24
Frame Time: 0.016670
7.091714 79.125055 2.301615 32.434075 26.128487 256.016664 -5.422811 10.063158 13.569828 -6.980690 -71.582165 81.884597 61.604611 181.790402 136.791723 -38.907578 -9.918537 29.260575 -90.072833 15.447139 53.368943 -85.972206 -6.145406 76.411061 79.248445 -52.069872 -0.561476 -5.860912 -47.994804 -34.666079 -109.990546 -24.159137 84.802085 35.775175 -43.152503 59.802343 -52.955577 -42.853966 7.186580
8.985769 79.216164 1.458837 30.276446 29.917441 256.938165 -6.203146 9.761910 13.679110 -5.743901 -65.661170 81.727312 62.894165 183.501611 138.116301 -37.351590 -9.685920 28.563834 -88.851281 14.286468 53.412349 -84.854520 -3.962905 77.099073 74.525799 -52.905880 -1.479635 -5.707444 -48.256673 -34.725409 -111.301990 -20.559143 83.936714 34.464868 -42.103434 58.158938 -53.371805 -43.122679 6.785556
10.904409 79.120888 0.602094 28.112189 33.797839 257.668914 -7.272078 9.334748 13.867197 -4.171556 -60.787850 82.118108 63.277973 186.162215 141.155585 -35.744470 -9.582140 26.732052 -88.271575 13.937707 53.715599 -82.789263 -1.455164 77.911264 70.034690 -53.243937 -2.092864 -5.355139 -47.909829 -34.208729 -112.286848 -16.789778 82.933653 33.707906 -40.505720 56.476526 -54.084710 -42.917299 5.700504
12.917490 78.802604 -0.305554 26.018678 37.373487 258.791660 -7.418467 7.513094 12.544740 -3.507007 -54.536509 81.468427 66.047219 186.963041 144.392672 -36.981141 -8.286710 24.618736 -87.091223 12.806487 53.781842 -79.406611 0.829358 78.523891 65.738406 -53.822871 -2.052272 -4.989416 -47.712392 -33.692667 -112.216163 -14.016645 81.456952 32.405126 -38.705456 55.431251 -54.332816 -43.244219 5.521712
14.977280 78.256573 -1.254092 23.852028 41.228951 259.742942 -8.450076 7.113801 11.463055 -2.302799 -51.962447 80.879262 69.171279 187.352731 146.828221 -37.124482 -8.148433 23.573317 -85.103734 10.715529 54.192480 -76.868267 3.003325 79.683494 62.479791 -54.247251 -2.137826 -4.893502 -47.564881 -33.563177 -112.128067 -11.106416 79.774390 31.387052 -37.608873 54.775426 -53.807209 -43.563834 6.588426
17.091905 77.457017 -2.237312 22.095862 45.577132 260.729276 -10.376719 10.430358 11.624620 -1.456971 -56.760740 80.728280 68.433960 190.171209 150.848307 -36.409317 -9.658912 25.301597 -82.645856 7.787311 55.948573 -75.122956 5.205841 80.845117 60.100706 -54.818244 -2.322589 -4.640254 -47.727641 -33.336719 -111.584288 -8.144216 77.139193 30.792351 -37.251978 54.623144 -52.376452 -43.995438 9.203510
19.221196 76.405896 -3.253024 20.565459 49.079923 262.901740 -11.441991 9.453014 8.660722 -2.234069 -53.101292 80.046716 73.729297 189.145642 155.514501 -38.853097 -7.861411 25.563499 -80.231705 5.065809 56.471458 -73.482734 6.598376 82.391131 58.982187 -54.409830 -2.341466 -4.089712 -47.117585 -32.377064 -109.538988 -6.571520 75.029375 30.491081 -36.871267 53.896080 -50.604021 -44.518541 12.442514
21.347372 75.100430 -4.312086 19.546458 52.598443 265.408201 -12.693562 10.186005 6.390471 -2.400709 -51.549265 79.381654 77.589576 188.674673 158.717846 -39.978412 -6.924919 27.539584 -77.870714 2.475394 57.974140 -70.979039 8.137555 83.628235 58.252491 -53.536962 -2.071276 -2.477640 -46.124957 -29.797937 -105.778477 -5.017702 72.494180 31.109275 -36.210965 52.752198 -49.213521 -45.277064 15.296176
23.465309 73.495830 -5.410907 20.037180 56.411502 269.233134 -14.350113 12.072743 4.663875 -2.368953 -51.480717 78.724364 80.329015 188.503140 161.078906 -39.290588 -7.322004 29.577683 -76.419312 1.054085 60.019912 -70.648048 9.738754 85.107996 59.481836 -51.176739 -2.950701 -0.756098 -44.242386 -26.770764 -99.537979 -3.339849 68.765327 32.138697 -36.142793 51.808491 -48.721556 -47.385598 17.461997
25.577223 71.597284 -6.609532 19.962874 60.273161 272.771555 -16.019422 13.847222 3.954906 -3.683834 -53.097706 77.290380 81.572635 188.541020 163.325259 -38.142474 -8.944447 30.806274 -75.209481 -0.199317 62.376293 -68.300990 10.792318 86.014437 59.412537 -51.034508 -2.361672 -0.049615 -44.044468 -25.685148 -89.263250 -0.918914 64.361460 32.187236 -37.355763 51.436133 -48.272925 -50.902033 20.338790
27.616772 69.439486 -7.869587 22.152168 64.211230 278.980552 -18.017600 14.443859 1.689470 -1.776561 -50.045247 78.688123 84.439484 188.144295 164.293439 -36.275213 -9.549863 30.863159 -75.214890 0.199679 63.102362 -63.710201 11.234810 84.502493 57.400794 -53.828106 -0.233874 1.401896 -46.342489 -24.278375 -80.143561 2.442922 61.770291 35.323635 -40.424106 47.532226 -48.880402 -53.296711 20.889876
29.604170 67.020515 -9.194652 26.718385 67.831783 287.693005 -19.956624 15.383811 -0.912867 -1.263888 -50.070553 78.553022 86.192507 188.213704 166.242474 -35.752823 -10.077395 31.086537 -75.132709 0.472718 64.342964 -62.477946 11.567774 83.398857 56.991542 -55.065835 -0.083432 3.435876 -47.682876 -21.829973 -69.543483 7.648184 59.053474 40.335621 -45.957925 41.531935 -48.442242 -54.693194 22.356094
31.482017 64.398617 -10.493258 32.571765 71.010813 298.105983 -22.082746 16.709720 -3.927191 -1.067089 -53.183944 78.619972 86.518641 188.584979 168.732419 -35.211322 -10.727121 32.694476 -74.256621 -0.416508 66.017999 -60.916920 11.248707 82.158617 55.888207 -56.823936 -0.145772 6.188154 -49.642993 -18.528606 -58.557363 12.973534 58.106099 46.424027 -53.521205 31.788329 -47.743637 -55.328931 23.755188
33.927659 61.425270 -12.284696 42.795363 75.319194 314.257796 -25.589683 17.653198 -7.342061 0.269018 -57.337758 80.457347 84.281754 186.197445 171.888923 -38.060563 -10.713126 36.262977 -71.067606 -2.523220 68.285089 -57.159517 9.928896 80.212369 53.878332 -59.266726 0.341169 8.151764 -51.741640 -16.493027 -49.189349 16.428777 59.590819 54.829559 -57.401142 17.396128 -50.194988 -55.016590 23.831165
35.517036 58.333201 -13.736992 48.557037 77.871383 325.961790 -27.419260 18.540485 -11.404353 0.669097 -61.375192 81.468823 85.236014 186.214289 174.659699 -40.457126 -8.624738 41.020897 -67.140725 -10.011820 71.584631 -55.849931 7.097762 79.444874 52.699458 -61.460870 -0.421121 8.103088 -53.739382 -16.723908 -39.768814 17.057434 59.565076 61.879499 -60.529410 4.805990 -49.385375 -54.426379 24.761461
36.965377 55.012025 -15.175682 57.965336 81.103066 341.323377 -30.080911 18.177949 -14.581796 1.497941 -66.234639 82.855529 85.768509 186.191599 177.032151 -36.761103 -6.029496 45.081622 -64.211995 -15.972443 73.730205 -56.432734 3.480759 79.350221 53.232380 -62.574341 -2.038141 7.785101 -55.114999 -17.224270 -32.349425 16.027959 59.456455 68.780558 -59.267676 -7.173107 -48.540064 -55.128530 26.554372
38.315403 51.470408 -16.604248 231.421398 94.960837 160.920432 -23.625206 11.033604 -17.802123 -2.783125 -56.868900 80.576001 92.745773 186.139334 183.631507 -36.430405 2.797170 40.630668 -66.111614 -11.415258 72.153285 -57.482490 -0.455482 81.629121 56.727866 -60.180244 -2.975427 6.813532 -53.362475 -18.186627 -25.213788 11.129591 58.183363 69.549002 -57.286682 -13.827386 -46.965293 -55.241696 29.020446
39.594087 47.731909 -18.038740 40.077347 91.497829 335.320460 -21.965467 4.436607 -19.554135 -4.550537 -54.880181 80.768326 95.748583 186.256909 188.405017 -29.851390 8.161104 35.961858 -72.476428 2.385791 68.558481 -57.952803 -5.033690 84.453418 61.577222 -57.244297 -3.249656 6.107052 -51.327147 -18.941061 -21.635679 5.033867 57.713350 72.114893 -53.993185 -19.745402 -45.103458 -55.552715 31.939986
40.808849 43.748555 -19.587744 52.452479 99.685983 354.055724 -17.259398 -2.740836 -21.948868 -8.897901 -51.333882 79.400307 98.557615 186.436393 194.917889 -31.601858 15.352284 36.944695 -75.261192 6.402873 62.189316 -61.581279 -11.197713 90.320140 68.458194 -55.974158 -1.503531 -0.255328 -49.883843 -26.783875 -20.153207 -5.610626 57.217253 71.833885 -51.082845 -22.134553 -46.867474 -55.129520 30.534982
42.071494 39.700791 -21.074226 24.274593 101.236968 332.361977 -20.170093 1.135140 -23.109728 -8.375213 -59.112173 81.256466 98.323182 185.923937 197.904157 -29.660759 17.219409 44.634166 -77.294819 8.639987 59.948113 -67.764267 -15.782650 88.851219 71.406179 -56.118849 0.265473 -7.889740 -49.969155 -36.753511 -24.824883 -9.717762 54.591329 71.117337 -49.053749 -19.625992 -60.389131 -58.279661 15.933580
43.524179 36.296534 -22.648327 18.873962 104.982692 330.549354 -18.553362 2.738811 -20.551602 -10.632110 -63.657397 79.684552 98.737508 185.551514 200.719507 -33.045937 22.172582 52.975101 -75.766025 5.398012 59.547467 -76.425350 -12.892997 92.055097 80.749256 -57.363562 6.209749 -11.785696 -52.100420 -42.960094 -32.248069 -11.203607 59.095739 78.237392 -43.289582 -20.189313 -67.818287 -61.963995 8.115707
45.067329 34.619598 -24.090550 22.034078 110.850309 332.306516 -15.818735 1.113834 -13.048657 -14.743158 -67.708574 75.886106 99.304537 185.214923 203.747152 -33.900517 25.307873 58.799336 -74.891235 3.538201 59.601030 -83.546915 -5.181191 96.763208 88.054430 -58.917178 12.208405 -10.442907 -53.846128 -42.719008 -42.685892 -9.663525 71.897986 89.084511 -35.280731 -21.066149 -67.433467 -59.095247 8.512081
46.513905 33.107643 -25.505468 21.802169 115.208325 329.851364 -12.554685 1.215467 -4.467687 -18.652478 -75.865814 71.477971 96.763850 183.671136 205.196491 -32.274341 26.037045 64.242328 -74.064276 2.486793 61.033956 -88.490367 3.560670 98.012272 93.569610 -60.942964 16.885517 -8.280207 -55.487979 -41.575058 -49.485851 -4.127313 81.225006 96.632369 -30.311994 -20.321433 -66.786389 -57.249590 9.591407
47.572231 31.955981 -26.809847 20.577086 118.459686 327.809984 -9.819328 1.288777 -0.011091 -21.911459 -80.980669 68.438400 96.137843 182.883834 208.425941 -30.041713 24.163582 69.465797 -74.210634 2.732771 61.497705 -91.058853 8.198746 97.963778 95.950142 -62.796377 18.859382 -7.270344 -56.774110 -41.799149 -52.983495 -0.056215 85.346356 99.924206 -28.723684 -20.017473 -66.750660 -57.888777 10.333477
